<svg xmlns="http://www.w3.org/2000/svg" xmlns:xlink="http://www.w3.org/1999/xlink" width="12" height="12" viewBox="0 0 12 12"><rect x="4" y="10" height="1" width="1" fill="#FF1500"></rect><rect x="4" y="11" height="1" width="1" fill="#FF1500"></rect><rect x="5" y="0" height="1" width="1" fill="#FF1500"></rect><rect x="5" y="1" height="1" width="1" fill="#FF1500"></rect><rect x="5" y="2" height="1" width="1" fill="#FF1500"></rect><rect x="5" y="3" height="1" width="1" fill="#FF1500"></rect><rect x="5" y="4" height="1" width="1" fill="#FF1500"></rect><rect x="5" y="5" height="1" width="1" fill="#FF1500"></rect><rect x="5" y="6" height="1" width="1" fill="#FF1500"></rect><rect x="5" y="7" height="1" width="1" fill="#FF1500"></rect><rect x="5" y="8" height="1" width="1" fill="#FF1500"></rect><rect x="5" y="10" height="1" width="1" fill="#FF1500"></rect><rect x="5" y="11" height="1" width="1" fill="#FF1500"></rect><rect x="6" y="0" height="1" width="1" fill="#FF1500"></rect><rect x="6" y="1" height="1" width="1" fill="#FF1500"></rect><rect x="6" y="2" height="1" width="1" fill="#FF1500"></rect><rect x="6" y="3" height="1" width="1" fill="#FF1500"></rect><rect x="6" y="4" height="1" width="1" fill="#FF1500"></rect><rect x="6" y="5" height="1" width="1" fill="#FF1500"></rect><rect x="7" y="0" height="1" width="1" fill="#FF1500"></rect><rect x="7" y="1" height="1" width="1" fill="#FF1500"></rect><rect x="7" y="2" height="1" width="1" fill="#FF1500"></rect></svg>
