<svg xmlns="http://www.w3.org/2000/svg" xmlns:xlink="http://www.w3.org/1999/xlink" width="12" height="12" viewBox="0 0 12 12"><rect x="0" y="3" height="1" width="1" fill="#1442FF"></rect><rect x="0" y="4" height="1" width="1" fill="#1442FF"></rect><rect x="0" y="7" height="1" width="1" fill="#1442FF"></rect><rect x="0" y="8" height="1" width="1" fill="#1442FF"></rect><rect x="1" y="2" height="1" width="1" fill="#1442FF"></rect><rect x="1" y="5" height="1" width="1" fill="#1442FF"></rect><rect x="1" y="9" height="1" width="1" fill="#1442FF"></rect><rect x="2" y="1" height="1" width="1" fill="#1442FF"></rect><rect x="2" y="2" height="1" width="1" fill="#1442FF"></rect><rect x="2" y="5" height="1" width="1" fill="#1442FF"></rect><rect x="2" y="10" height="1" width="1" fill="#1442FF"></rect><rect x="3" y="1" height="1" width="1" fill="#1442FF"></rect><rect x="3" y="3" height="1" width="1" fill="#1442FF"></rect><rect x="3" y="4" height="1" width="1" fill="#1442FF"></rect><rect x="3" y="10" height="1" width="1" fill="#1442FF"></rect><rect x="4" y="0" height="1" width="1" fill="#1442FF"></rect><rect x="4" y="11" height="1" width="1" fill="#1442FF"></rect><rect x="5" y="0" height="1" width="1" fill="#1442FF"></rect><rect x="5" y="11" height="1" width="1" fill="#1442FF"></rect><rect x="6" y="0" height="1" width="1" fill="#1442FF"></rect><rect x="6" y="11" height="1" width="1" fill="#1442FF"></rect><rect x="7" y="0" height="1" width="1" fill="#1442FF"></rect><rect x="7" y="11" height="1" width="1" fill="#1442FF"></rect><rect x="8" y="1" height="1" width="1" fill="#1442FF"></rect><rect x="8" y="7" height="1" width="1" fill="#1442FF"></rect><rect x="8" y="8" height="1" width="1" fill="#1442FF"></rect><rect x="8" y="10" height="1" width="1" fill="#1442FF"></rect><rect x="9" y="1" height="1" width="1" fill="#1442FF"></rect><rect x="9" y="6" height="1" width="1" fill="#1442FF"></rect><rect x="9" y="9" height="1" width="1" fill="#1442FF"></rect><rect x="9" y="10" height="1" width="1" fill="#1442FF"></rect><rect x="10" y="2" height="1" width="1" fill="#1442FF"></rect><rect x="10" y="6" height="1" width="1" fill="#1442FF"></rect><rect x="10" y="9" height="1" width="1" fill="#1442FF"></rect><rect x="11" y="3" height="1" width="1" fill="#1442FF"></rect><rect x="11" y="4" height="1" width="1" fill="#1442FF"></rect><rect x="11" y="7" height="1" width="1" fill="#1442FF"></rect><rect x="11" y="8" height="1" width="1" fill="#1442FF"></rect></svg>
