<svg xmlns="http://www.w3.org/2000/svg" xmlns:xlink="http://www.w3.org/1999/xlink" width="12" height="12" viewBox="0 0 12 12"><rect x="0" y="5" height="1" width="1" fill="#FF1500"></rect><rect x="0" y="6" height="1" width="1" fill="#FF1500"></rect><rect x="1" y="4" height="1" width="1" fill="#FF1500"></rect><rect x="1" y="5" height="1" width="1" fill="#FF1500"></rect><rect x="1" y="6" height="1" width="1" fill="#FF1500"></rect><rect x="2" y="3" height="1" width="1" fill="#FF1500"></rect><rect x="2" y="4" height="1" width="1" fill="#FF1500"></rect><rect x="2" y="5" height="1" width="1" fill="#FF1500"></rect><rect x="2" y="6" height="1" width="1" fill="#FF1500"></rect><rect x="2" y="7" height="1" width="1" fill="#FF1500"></rect><rect x="2" y="8" height="1" width="1" fill="#FF1500"></rect><rect x="2" y="9" height="1" width="1" fill="#FF1500"></rect><rect x="2" y="10" height="1" width="1" fill="#FF1500"></rect><rect x="2" y="11" height="1" width="1" fill="#FF1500"></rect><rect x="3" y="2" height="1" width="1" fill="#FF1500"></rect><rect x="3" y="3" height="1" width="1" fill="#FF1500"></rect><rect x="3" y="4" height="1" width="1" fill="#FF1500"></rect><rect x="3" y="5" height="1" width="1" fill="#FF1500"></rect><rect x="3" y="6" height="1" width="1" fill="#FF1500"></rect><rect x="3" y="9" height="1" width="1" fill="#FF1500"></rect><rect x="3" y="10" height="1" width="1" fill="#FF1500"></rect><rect x="3" y="11" height="1" width="1" fill="#FF1500"></rect><rect x="4" y="1" height="1" width="1" fill="#FF1500"></rect><rect x="4" y="2" height="1" width="1" fill="#FF1500"></rect><rect x="4" y="3" height="1" width="1" fill="#FF1500"></rect><rect x="4" y="4" height="1" width="1" fill="#FF1500"></rect><rect x="4" y="5" height="1" width="1" fill="#FF1500"></rect><rect x="4" y="6" height="1" width="1" fill="#FF1500"></rect><rect x="4" y="9" height="1" width="1" fill="#FF1500"></rect><rect x="4" y="10" height="1" width="1" fill="#FF1500"></rect><rect x="4" y="11" height="1" width="1" fill="#FF1500"></rect><rect x="5" y="0" height="1" width="1" fill="#FF1500"></rect><rect x="5" y="1" height="1" width="1" fill="#FF1500"></rect><rect x="5" y="2" height="1" width="1" fill="#FF1500"></rect><rect x="5" y="3" height="1" width="1" fill="#FF1500"></rect><rect x="5" y="4" height="1" width="1" fill="#FF1500"></rect><rect x="5" y="5" height="1" width="1" fill="#FF1500"></rect><rect x="5" y="6" height="1" width="1" fill="#FF1500"></rect><rect x="5" y="7" height="1" width="1" fill="#FF1500"></rect><rect x="5" y="8" height="1" width="1" fill="#FF1500"></rect><rect x="5" y="9" height="1" width="1" fill="#FF1500"></rect><rect x="5" y="10" height="1" width="1" fill="#FF1500"></rect><rect x="5" y="11" height="1" width="1" fill="#FF1500"></rect><rect x="6" y="0" height="1" width="1" fill="#FF1500"></rect><rect x="6" y="1" height="1" width="1" fill="#FF1500"></rect><rect x="6" y="2" height="1" width="1" fill="#FF1500"></rect><rect x="6" y="3" height="1" width="1" fill="#FF1500"></rect><rect x="6" y="4" height="1" width="1" fill="#FF1500"></rect><rect x="6" y="5" height="1" width="1" fill="#FF1500"></rect><rect x="6" y="6" height="1" width="1" fill="#FF1500"></rect><rect x="6" y="7" height="1" width="1" fill="#FF1500"></rect><rect x="6" y="8" height="1" width="1" fill="#FF1500"></rect><rect x="6" y="9" height="1" width="1" fill="#FF1500"></rect><rect x="6" y="10" height="1" width="1" fill="#FF1500"></rect><rect x="6" y="11" height="1" width="1" fill="#FF1500"></rect><rect x="7" y="1" height="1" width="1" fill="#FF1500"></rect><rect x="7" y="2" height="1" width="1" fill="#FF1500"></rect><rect x="7" y="3" height="1" width="1" fill="#FF1500"></rect><rect x="7" y="4" height="1" width="1" fill="#FF1500"></rect><rect x="7" y="5" height="1" width="1" fill="#FF1500"></rect><rect x="7" y="6" height="1" width="1" fill="#FF1500"></rect><rect x="7" y="9" height="1" width="1" fill="#FF1500"></rect><rect x="7" y="10" height="1" width="1" fill="#FF1500"></rect><rect x="7" y="11" height="1" width="1" fill="#FF1500"></rect><rect x="8" y="2" height="1" width="1" fill="#FF1500"></rect><rect x="8" y="3" height="1" width="1" fill="#FF1500"></rect><rect x="8" y="4" height="1" width="1" fill="#FF1500"></rect><rect x="8" y="5" height="1" width="1" fill="#FF1500"></rect><rect x="8" y="6" height="1" width="1" fill="#FF1500"></rect><rect x="8" y="9" height="1" width="1" fill="#FF1500"></rect><rect x="8" y="10" height="1" width="1" fill="#FF1500"></rect><rect x="8" y="11" height="1" width="1" fill="#FF1500"></rect><rect x="9" y="3" height="1" width="1" fill="#FF1500"></rect><rect x="9" y="4" height="1" width="1" fill="#FF1500"></rect><rect x="9" y="5" height="1" width="1" fill="#FF1500"></rect><rect x="9" y="6" height="1" width="1" fill="#FF1500"></rect><rect x="9" y="7" height="1" width="1" fill="#FF1500"></rect><rect x="9" y="8" height="1" width="1" fill="#FF1500"></rect><rect x="9" y="9" height="1" width="1" fill="#FF1500"></rect><rect x="9" y="10" height="1" width="1" fill="#FF1500"></rect><rect x="9" y="11" height="1" width="1" fill="#FF1500"></rect><rect x="10" y="4" height="1" width="1" fill="#FF1500"></rect><rect x="10" y="5" height="1" width="1" fill="#FF1500"></rect><rect x="10" y="6" height="1" width="1" fill="#FF1500"></rect><rect x="11" y="5" height="1" width="1" fill="#FF1500"></rect><rect x="11" y="6" height="1" width="1" fill="#FF1500"></rect></svg>
